<?xml version="1.0" encoding="UTF-8"?>
<svg width="512" height="512" version="1.1" viewBox="0 0 24 24" xmlns="http://www.w3.org/2000/svg">
 <g transform="matrix(.9375 0 0 .9375 .75 .75)" fill="none">
  <path d="m24 0v24h-24v-24zm-11.406 23.258-0.012 2e-3 -0.071 0.035-0.02 4e-3 -0.014-4e-3 -0.071-0.036c-0.01-3e-3 -0.019 0-0.024 6e-3l-4e-3 0.01-0.017 0.428 5e-3 0.02 0.01 0.013 0.104 0.074 0.015 4e-3 0.012-4e-3 0.104-0.074 0.012-0.016 4e-3 -0.017-0.017-0.427c-2e-3 -0.01-9e-3 -0.017-0.016-0.018zm0.264-0.113-0.014 2e-3 -0.184 0.093-0.01 0.01-3e-3 0.011 0.018 0.43 5e-3 0.012 8e-3 8e-3 0.201 0.092c0.012 4e-3 0.023 0 0.029-8e-3l4e-3 -0.014-0.034-0.614c-3e-3 -0.012-0.01-0.02-0.02-0.022zm-0.715 2e-3a0.023 0.023 0 0 0-0.027 6e-3l-6e-3 0.014-0.034 0.614c0 0.012 7e-3 0.02 0.017 0.024l0.015-2e-3 0.201-0.093 0.01-8e-3 3e-3 -0.011 0.018-0.43-3e-3 -0.012-0.01-0.01z"/>
  <path d="m4 9a1 1 0 0 1 0.993 0.883l7e-3 0.117v1a6 6 0 0 0 5.775 5.996l0.225 4e-3h3.586l-0.793-0.793a1 1 0 0 1 1.32-1.497l0.094 0.083 2.5 2.5a0.992 0.992 0 0 1 0.281 0.555l0.012 0.162a0.996 0.996 0 0 1-0.212 0.606l-0.085 0.095-2.496 2.496a1 1 0 0 1-1.497-1.32l0.083-0.094 0.793-0.793h-3.586a8 8 0 0 1-7.996-7.75l-4e-3 -0.25v-1a1 1 0 0 1 1-1zm4.793-6.207a1 1 0 0 1 1.497 1.32l-0.083 0.094-0.793 0.793h3.586a8 8 0 0 1 7.996 7.75l4e-3 0.25v1a1 1 0 0 1-1.993 0.117l-7e-3 -0.117v-1a6 6 0 0 0-5.775-5.996l-0.225-4e-3h-3.586l0.793 0.793a1 1 0 0 1-1.32 1.497l-0.094-0.083-2.5-2.5a1 1 0 0 1-0.083-1.32l0.083-0.094z" fill="#000"/>
 </g>
</svg>
