<svg xmlns="http://www.w3.org/2000/svg" viewBox="0 0 20 20" class="ic">
                <path fill="#fff" d="M2.1029 2h15.44c.61098 0 1.1029.669 1.1029 1.5S18.15393 5 17.5429 5h-15.44C1.49192 5 1 4.331 1 3.5S1.49187 2 2.1029 2zm.1288 7h15.44c.61098 0 1.1029.669 1.1029 1.5s-.49187 1.5-1.1029 1.5h-15.44c-.61098 0-1.1029-.669-1.1029-1.5S1.62067 9 2.2317 9zm.2255 7h15.44c.61098 0 1.1029.669 1.1029 1.5s-.49187 1.5-1.1029 1.5h-15.44c-.61098 0-1.1029-.669-1.1029-1.5S1.84617 16 2.4572 16z"></path>
          </svg>