<svg xmlns="http://www.w3.org/2000/svg" viewBox="0 0 20 20" class="ic">
            <path fill="#fff" fill-rule="evenodd" d="m17.6282 13.1561-1.82448-1.79703v-5.1622c0-2.85869-2.57544-5.2109-5.8464-5.2109-3.26592 0-5.8464 2.29864-5.8464 5.2109v5.1622L2.28644 13.1561c-.313488.337004-.439488.78407-.187992 1.17854.187992.392522.63.67206 1.134.67206h13.4064c.502488 0 .94248-.280999 1.134-.67206.313488-.392522.250488-.83764-.126-1.17854zm-5.4432 2.8246H7.82036c-.436464 0-.81648.468494-.81648 1.00322s.381528.99835.81648.99835H12.185c.436464 0 .81648-.465085.81648-.99835 0-.53083-.381528-1.00322-.81648-1.00322z"></path>
        </svg>