<?xml version="1.0" encoding="UTF-8"?>
<svg width="512" height="512" version="1.1" viewBox="0 0 24 24" xmlns="http://www.w3.org/2000/svg">
 <g transform="matrix(.89844 0 0 .89844 1.2188 1.2188)" fill="none" fill-rule="evenodd">
  <path d="m24 0v24h-24v-24zm-11.407 23.258-0.011 2e-3 -0.071 0.035-0.02 4e-3 -0.014-4e-3 -0.071-0.035c-0.01-4e-3 -0.019-1e-3 -0.024 5e-3l-4e-3 0.01-0.017 0.428 5e-3 0.02 0.01 0.013 0.104 0.074 0.015 4e-3 0.012-4e-3 0.104-0.074 0.012-0.016 4e-3 -0.017-0.017-0.427c-2e-3 -0.01-9e-3 -0.017-0.017-0.018zm0.265-0.113-0.013 2e-3 -0.185 0.093-0.01 0.01-3e-3 0.011 0.018 0.43 5e-3 0.012 8e-3 7e-3 0.201 0.093c0.012 4e-3 0.023 0 0.029-8e-3l4e-3 -0.014-0.034-0.614c-3e-3 -0.012-0.01-0.02-0.02-0.022zm-0.715 2e-3a0.023 0.023 0 0 0-0.027 6e-3l-6e-3 0.014-0.034 0.614c0 0.012 7e-3 0.02 0.017 0.024l0.015-2e-3 0.201-0.093 0.01-8e-3 4e-3 -0.011 0.017-0.43-3e-3 -0.012-0.01-0.01z"/>
  <path d="m6.798 2.884a7.002 7.002 0 0 1 9.294 8.565l4.394 3.718a3.76 3.76 0 1 1-5.3 5.3l-3.717-4.394a7.002 7.002 0 0 1-8.565-9.295c0.358-0.894 1.48-1.007 2.063-0.373l3.203 3.478 1.446-0.288 0.29-1.449-3.48-3.198c-0.634-0.583-0.522-1.706 0.373-2.064zm2.007 1.536 2.763 2.54c0.322 0.296 0.466 0.738 0.38 1.165l-0.47 2.354a1.25 1.25 0 0 1-0.982 0.981l-2.35 0.467a1.25 1.25 0 0 1-1.164-0.38l-2.544-2.762a5.002 5.002 0 0 0 6.804 5.25 1.257 1.257 0 0 1 1.422 0.355l4.05 4.786a1.76 1.76 0 1 0 2.48-2.48l-4.785-4.05a1.257 1.257 0 0 1-0.355-1.422 5.001 5.001 0 0 0-5.25-6.804z" fill="#000"/>
 </g>
</svg>
