<?xml version="1.0" encoding="UTF-8"?>
<svg width="32" height="32" fill="none" version="1.1" viewBox="0 0 32 32" xml:space="preserve" xmlns="http://www.w3.org/2000/svg"><g transform="matrix(1.6 0 0 1.6 -3 -3.2)" fill="#7286ff"><path d="m12 16a7 7 0 1 0 0-14 7 7 0 0 0 0 14zm0-10c-0.284 0-0.474 0.34-0.854 1.023l-0.098 0.176c-0.108 0.194-0.162 0.29-0.246 0.354-0.085 0.064-0.19 0.088-0.4 0.135l-0.19 0.044c-0.738 0.167-1.107 0.25-1.195 0.532-0.088 0.283 0.164 0.577 0.667 1.165l0.13 0.152c0.143 0.167 0.215 0.25 0.247 0.354s0.021 0.215 0 0.438l-0.02 0.203c-0.076 0.785-0.114 1.178 0.115 1.352 0.23 0.174 0.576 0.015 1.267-0.303l0.178-0.082c0.197-0.09 0.295-0.135 0.399-0.135s0.202 0.045 0.399 0.135l0.178 0.082c0.691 0.319 1.037 0.477 1.267 0.303s0.191-0.567 0.115-1.352l-0.02-0.203c-0.021-0.223-0.032-0.334 0-0.438 0.032-0.103 0.104-0.187 0.247-0.354l0.13-0.152c0.503-0.588 0.755-0.882 0.667-1.165-0.088-0.282-0.457-0.365-1.195-0.532l-0.19-0.044c-0.21-0.047-0.315-0.07-0.4-0.135-0.084-0.064-0.138-0.16-0.246-0.354l-0.098-0.176c-0.38-0.683-0.57-1.023-0.854-1.023z" clip-rule="evenodd" fill-rule="evenodd"/><path d="m7.093 15.941-0.379 1.382c-0.628 2.292-0.942 3.438-0.523 4.065 0.147 0.22 0.344 0.396 0.573 0.513 0.652 0.332 1.66-0.193 3.675-1.243 0.67-0.35 1.006-0.524 1.362-0.562a1.87 1.87 0 0 1 0.398 0c0.356 0.038 0.691 0.213 1.362 0.562 2.015 1.05 3.023 1.575 3.675 1.243 0.229-0.117 0.426-0.293 0.573-0.513 0.42-0.627 0.105-1.773-0.523-4.065l-0.379-1.382a8.461 8.461 0 0 1-4.907 1.559 8.46 8.46 0 0 1-4.907-1.559z"/></g></svg>
