<?xml version="1.0" encoding="UTF-8"?>
<svg width="32" height="32" fill="none" version="1.1" viewBox="0 0 32 32" xml:space="preserve" xmlns="http://www.w3.org/2000/svg"><path d="m11.445 5.4527c2.0272-3.6351 3.0399-5.4527 4.5551-5.4527s2.5279 1.8176 4.5551 5.4527l0.52479 0.94078c0.57599 1.0336 0.86398 1.5504 1.312 1.8912 0.44799 0.34079 1.008 0.46719 2.128 0.71998l1.0176 0.23039c3.9359 0.89118 5.9023 1.336 6.371 2.8415 0.46719 1.504-0.87358 3.0735-3.5567 6.2111l-0.69438 0.81118c-0.76158 0.89118-1.144 1.3376-1.3152 1.888-0.1712 0.55199-0.1136 1.1472 0.0016 2.3359l0.1056 1.0832c0.40479 4.1871 0.60799 6.2799-0.61758 7.2094-1.2256 0.93118-3.0687 0.0816-6.7518-1.6144l-0.95518-0.43839c-1.0464-0.48319-1.5696-0.72318-2.1248-0.72318s-1.0784 0.24-2.1264 0.72318l-0.95198 0.43839c-3.6847 1.696-5.5279 2.5439-6.7518 1.616-1.2272-0.93118-1.024-3.0239-0.61918-7.211l0.1056-1.0816c0.1152-1.1904 0.1728-1.7856 0-2.3359-0.1696-0.55199-0.55199-0.99838-1.3136-1.888l-0.69438-0.81278c-2.6831-3.1359-4.0239-4.7055-3.5567-6.2111 0.46879-1.5056 2.4367-1.952 6.3726-2.8415l1.0176-0.23039c1.1184-0.25279 1.6768-0.37919 2.1264-0.71998 0.44799-0.34079 0.73598-0.85758 1.312-1.8912z" fill="#7286ff" stroke-width="1.6"/></svg>
