<?xml version="1.0" encoding="UTF-8"?>
<svg width="24" height="24" version="1.1" viewBox="0 0 24 24" xml:space="preserve" xmlns="http://www.w3.org/2000/svg" xmlns:cc="http://creativecommons.org/ns#" xmlns:dc="http://purl.org/dc/elements/1.1/" xmlns:rdf="http://www.w3.org/1999/02/22-rdf-syntax-ns#"><metadata><rdf:RDF><cc:Work rdf:about=""><dc:format>image/svg+xml</dc:format><dc:type rdf:resource="http://purl.org/dc/dcmitype/StillImage"/></cc:Work></rdf:RDF></metadata><defs><style>.cls-1{fill:#fff;}</style><style>.cls-1{fill:none;stroke:#000;stroke-linecap:square;stroke-miterlimit:10;stroke-width:16px;}</style><style>.cls-1{fill:none;stroke:#000;stroke-linecap:square;stroke-miterlimit:10;stroke-width:16px;}</style></defs><g transform="matrix(1.1,0,0,1.1,-1.2,-1.2)" fill="#fff" stroke-width="3.1297"><path d="m12 2c-5.514 0-10 4.486-10 10s4.486 10 10 10 10-4.486 10-10-4.486-10-10-10m0 18c-4.411 0-8-3.589-8-8 0-1.168 0.258-2.275 0.709-3.276 0.154 0.09 0.308 0.182 0.456 0.276 0.396 0.25 0.791 0.5 1.286 0.688 0.494 0.187 1.088 0.312 1.879 0.312 0.792 0 1.386-0.125 1.881-0.313s0.891-0.437 1.287-0.687 0.792-0.5 1.287-0.688c0.494-0.187 1.088-0.312 1.88-0.312s1.386 0.125 1.88 0.313c0.495 0.187 0.891 0.437 1.287 0.687s0.792 0.5 1.287 0.688c0.178 0.067 0.374 0.122 0.581 0.171 0.191 0.682 0.3 1.398 0.3 2.141 0 4.411-3.589 8-8 8"/><circle cx="8.5" cy="12.5" r="1.5"/><circle cx="15.5" cy="12.5" r="1.5"/></g></svg>
