<?xml version="1.0" encoding="UTF-8"?>
<svg width="32" height="32" fill="none" version="1.1" viewBox="0 0 32 32" xmlns="http://www.w3.org/2000/svg">
 <path d="m19.213 27.003 0.0096-3.2046a1.6039 1.6039 0 0 1 3.2078 0v3.163c0 0.76954 0 1.1551 0.24638 1.3919 0.24798 0.23518 0.62395 0.21918 1.3807 0.18719 2.9806-0.12639 4.8124-0.52796 6.102-1.8175 1.2959-1.2895 1.6975-3.1214 1.8239-6.1068 0.024-0.59196 0.0368-0.88954-0.07359-1.0863-0.11199-0.19678-0.55196-0.44317-1.4351-0.93753a3.1982 3.1982 0 0 1 0-5.5868c0.88313-0.49276 1.3247-0.74074 1.4351-0.93753 0.11039-0.19679 0.09759-0.49276 0.07199-1.0863-0.12479-2.9854-0.52796-4.8156-1.8223-6.1068-1.4031-1.4015-3.4477-1.7551-6.9147-1.8447a0.79514 0.79514 0 0 0-0.81594 0.79514v3.9741a1.6039 1.6039 0 0 1-3.2078 0l-0.0112-4.0013a0.79994 0.79994 0 0 0-0.79994-0.79834h-5.6188c-6.0476 0-9.0713 0-10.951 1.8751-1.2959 1.2895-1.6975 3.1214-1.8239 6.1068-0.023998 0.59196-0.036797 0.88954 0.073595 1.0863 0.11199 0.19679 0.55196 0.44477 1.4351 0.93753a3.1982 3.1982 0 0 1 0 5.5868c-0.88314 0.49436-1.3247 0.74075-1.4351 0.93753-0.11039 0.19679-0.097593 0.49276-0.071995 1.0847 0.12479 2.987 0.52796 4.8188 1.8223 6.1084 1.8799 1.8751 4.9036 1.8751 10.953 1.8751h4.8156c0.75514 0 1.1311 0 1.3663-0.23358 0.23518-0.23358 0.23678-0.60796 0.23838-1.3615zm3.2158-9.6041v-3.1998a1.6039 1.6039 0 0 0-3.2078 0v3.1998a1.6047 1.6047 0 0 0 3.2094 0z" clip-rule="evenodd" fill="#7286ff" fill-rule="evenodd" stroke-width="1.5999"/>
</svg>
