<?xml version="1.0" encoding="UTF-8" standalone="no"?>
<svg
   width="32"
   height="32"
   viewBox="0 0 32 32"
   fill="none"
   version="1.1"
   id="svg1109"
   sodipodi:docname="premium-icon.svg"
   inkscape:version="1.2.2 (732a01da63, 2022-12-09)"
   xmlns:inkscape="http://www.inkscape.org/namespaces/inkscape"
   xmlns:sodipodi="http://sodipodi.sourceforge.net/DTD/sodipodi-0.dtd"
   xmlns="http://www.w3.org/2000/svg"
   xmlns:svg="http://www.w3.org/2000/svg">
  <defs
     id="defs1113" />
  <sodipodi:namedview
     id="namedview1111"
     pagecolor="#ffffff"
     bordercolor="#000000"
     borderopacity="0.25"
     inkscape:showpageshadow="2"
     inkscape:pageopacity="0.0"
     inkscape:pagecheckerboard="0"
     inkscape:deskcolor="#d1d1d1"
     showgrid="false"
     inkscape:zoom="27.482884"
     inkscape:cx="23.45096"
     inkscape:cy="11.643611"
     inkscape:window-width="5120"
     inkscape:window-height="1369"
     inkscape:window-x="-8"
     inkscape:window-y="-8"
     inkscape:window-maximized="1"
     inkscape:current-layer="svg1109" />
  <path
     fill-rule="evenodd"
     clip-rule="evenodd"
     d="M 14.959009,4.1876744 C 15.29004,4.0624881 15.64708,4 16.004121,4 v 9.549e-4 c 0.916168,9.124e-4 1.831876,0.4141828 2.307629,1.2398128 l 4.571903,7.9277103 5.318279,-2.495634 c 0.902878,-0.426608 1.965944,-0.305721 2.755086,0.295067 0.792829,0.607903 1.180304,1.603318 0.998917,2.588059 l -2.317841,13.036317 c -0.223968,1.269154 -1.329432,2.196917 -2.623471,2.196917 H 4.9911678 c -0.1286296,0 -0.2554344,-0.0092 -0.3797137,-0.0271 C 4.1194796,28.691506 3.6669715,28.485603 3.2962902,28.180342 2.8206848,27.788813 2.4791285,27.234145 2.3604346,26.592287 L 0.0425675,13.55597 c -0.17775524,-0.984741 0.20974491,-1.980156 1.002517,-2.588059 0.229703,-0.174087 0.4820959,-0.307583 0.7466365,-0.399088 0.2840987,-0.09864 0.5820964,-0.148445 0.8810525,-0.148445 0.3839351,0 0.7714463,0.08175 1.1304961,0.252411 l 5.3159563,2.494509 4.5710901,-7.9265303 c 0.291491,-0.5057812 0.748073,-0.8568105 1.268693,-1.0530933 z"
     fill="#ffc107"
     id="path6251"
     style="stroke-width:1.84336" />
</svg>
