<?xml version="1.0" encoding="UTF-8"?>
<svg width="32" height="32" fill="none" version="1.1" viewBox="0 0 32 32" xmlns="http://www.w3.org/2000/svg">
 <g clip-rule="evenodd" fill="#ffc107" fill-rule="evenodd" stroke-width="1.0822">
  <path d="m6.6312 16.311c0.17416-0.08376 0.36934-0.12554 0.56451-0.12554v5.41e-4c0.41194 4.33e-4 0.82365 0.18733 1.0376 0.56092l2.0555 3.5866 2.3912-1.1291c0.40594-0.19296 0.88385-0.13831 1.2387 0.13355 0.35648 0.27499 0.53072 0.72531 0.44923 1.1709l-1.0422 5.8978c-0.10076 0.57423-0.59782 0.99402-1.1796 0.99402h-9.9021c-0.58021 0-1.0773-0.4198-1.1828-0.99402l-1.0422-5.8978c-0.07992-0.44555 0.094305-0.89587 0.45075-1.1709 0.078584-0.05996 0.16307-0.1092 0.25138-0.14762 0.15243-0.06656 0.31612-0.10021 0.48046-0.10021 0.17263 0 0.34685 0.0369 0.50829 0.11418l2.3902 1.1285 2.0552-3.586c0.11309-0.1974 0.28142-0.34274 0.47582-0.43592z"/>
  <path d="m24.243 16.311c0.17413-0.08376 0.36926-0.12554 0.56449-0.12554v5.41e-4c0.4119 4.33e-4 0.82357 0.18733 1.0375 0.56092l2.0556 3.5866 2.3912-1.1291c0.40605-0.19296 0.88396-0.13831 1.2388 0.13355 0.35638 0.27499 0.53062 0.72531 0.44912 1.1709l-1.0422 5.8978c-0.10065 0.57423-0.59782 0.99402-1.1796 0.99402h-9.902c-0.58029 0-1.0774-0.4198-1.1829-0.99402l-1.0422-5.8978c-0.07987-0.44555 0.09437-0.89587 0.45075-1.1709 0.07857-0.05996 0.16309-0.1092 0.2514-0.14762 0.15249-0.06656 0.31612-0.10021 0.48051-0.10021 0.17262 0 0.34685 0.0369 0.50821 0.11418l2.3902 1.1285 2.0553-3.586c0.11309-0.1974 0.28138-0.34274 0.47586-0.43592z"/>
  <path d="m15.104 4.1255c0.17413-0.083749 0.36936-0.12554 0.56449-0.12554v5.595e-4c0.412 4.128e-4 0.82368 0.18738 1.0376 0.56091l2.0556 3.5866 2.3912-1.1291c0.40594-0.19299 0.88385-0.13831 1.2387 0.1335 0.35648 0.27503 0.53072 0.72536 0.44923 1.1709l-1.0422 5.8979c-0.10076 0.57418-0.59782 0.99394-1.1796 0.99394h-9.9021c-0.58021 0-1.0773-0.41975-1.1828-0.99394l-1.0422-5.8979c-0.079922-0.44552 0.094305-0.89586 0.45075-1.1709 0.07858-0.059934 0.16307-0.10923 0.25138-0.14762 0.15242-0.066546 0.31612-0.10024 0.48046-0.10024 0.17264 0 0.34685 0.03699 0.5083 0.1142l2.3902 1.1286 2.0551-3.586c0.11309-0.19743 0.28149-0.34274 0.47586-0.43593z"/>
 </g>
</svg>
