<?xml version="1.0" encoding="UTF-8"?>
<svg width="32" height="32" version="1.1" viewBox="0 0 7.5 7.5" xmlns="http://www.w3.org/2000/svg">
 <path d="m3.7339 1.0547a2.6778 2.6785 0 0 0-2.0309 4.4244l-0.33558 0.33568a0.20216 0.20221 0 1 0 0.28585 0.28593l0.33558-0.33568a2.6778 2.6785 0 0 0 3.7763-3.7774l0.33558-0.33568a0.20241 0.20247 0 1 0-0.28626-0.28634l-0.33558 0.33568a2.6673 2.668 0 0 0-1.745-0.64628zm1.4725 0.91967a2.2937 2.2943 0 0 0-3.2313 3.2322zm-2.945 3.5177a2.2937 2.2943 0 0 0 3.2313-3.2322l-3.2317 3.2326z" clip-rule="evenodd" fill="#fff" fill-rule="evenodd" stroke="#fff" stroke-width=".14062"/>
</svg>
